REM MD5 8e56a8ebae88eebc97f74972ce30eec8
FILE "Registered Users Demo 05 (Europe) (En,Fr,De,Es,It).bin" BINARY
  TRACK 01 MODE2/2352
    INDEX 01 00:00:00
  TRACK 02 AUDIO
    INDEX 00 33:15:28
    INDEX 01 33:17:28
  TRACK 03 AUDIO
    INDEX 00 35:15:45
    INDEX 01 35:17:45
  TRACK 04 AUDIO
    INDEX 00 38:47:10
    INDEX 01 38:49:10
  TRACK 05 AUDIO
    INDEX 00 44:02:64
    INDEX 01 44:04:64
REM LEADOUT 47:06:21
